<?xml version="1.0" encoding="UTF-8" standalone="no"?>
<!-- Created with Inkscape (http://www.inkscape.org/) -->

<svg
   xmlns:dc="http://purl.org/dc/elements/1.1/"
   xmlns:cc="http://creativecommons.org/ns#"
   xmlns:rdf="http://www.w3.org/1999/02/22-rdf-syntax-ns#"
   xmlns:svg="http://www.w3.org/2000/svg"
   xmlns="http://www.w3.org/2000/svg"
   xmlns:sodipodi="http://sodipodi.sourceforge.net/DTD/sodipodi-0.dtd"
   xmlns:inkscape="http://www.inkscape.org/namespaces/inkscape"
   version="1.1"
   id="svg3723"
   width="82.666664"
   height="796"
   viewBox="0 0 82.666664 796"
   sodipodi:docname="Wooden Textures 25 plank.svg"
   inkscape:version="0.92.3 (2405546, 2018-03-11)">
  <metadata
     id="metadata3729">
    <rdf:RDF>
      <cc:Work
         rdf:about="">
        <dc:format>image/svg+xml</dc:format>
        <dc:type
           rdf:resource="http://purl.org/dc/dcmitype/StillImage" />
        <dc:title></dc:title>
      </cc:Work>
    </rdf:RDF>
  </metadata>
  <defs
     id="defs3727" />
  <sodipodi:namedview
     pagecolor="#ffffff"
     bordercolor="#666666"
     borderopacity="1"
     objecttolerance="10"
     gridtolerance="10"
     guidetolerance="10"
     inkscape:pageopacity="0"
     inkscape:pageshadow="2"
     inkscape:window-width="1920"
     inkscape:window-height="1000"
     id="namedview3725"
     showgrid="false"
     inkscape:zoom="1.1859296"
     inkscape:cx="610.03885"
     inkscape:cy="494.61681"
     inkscape:window-x="-11"
     inkscape:window-y="-11"
     inkscape:window-maximized="1"
     inkscape:current-layer="svg3723" />
  <path
     style="fill:#000000;stroke-width:1.33333325"
     d="m 2.5296585,399.68644 c 0,-352.888889 0.22669,-397.9999998 2,-397.9999998 1.77331,0 2,45.1111108 2,397.9999998 0,352.88889 -0.22669,398 -2,398 -1.77331,0 -2,-45.11111 -2,-398 z m 8.4754305,375 c 0.38264,-12.65 1.10492,-25.65169 1.60507,-28.89265 0.50015,-3.24096 0.27084,-8.94096 -0.50959,-12.66667 -0.78042,-3.72571 -1.7536,-10.67401 -2.1626105,-15.44068 -1.09719,-12.78668 1.1946305,-6.06153 3.8862205,11.4038 1.82218,11.82381 1.98461,16.28719 0.82165,22.57821 -0.79722,4.31259 -1.4495,16.43088 -1.4495,26.92954 0,12.80773 -0.47495,19.08845 -1.44347,19.08845 -1.00685,0 -1.23303,-6.95719 -0.74777,-23 z m 7.97303,-11.04375 c 0.80698,-31.36145 0.659,-35.0453 -1.87811,-46.75549 -3.04944,-14.07488 -3.38725,-21.31559 -2.13994,-45.86743 0.4657,-9.16666 1.49563,-43.36666 2.28873,-76 0.79311,-32.63333 2.36308,-69.23333 3.48884,-81.33333 2.8095,-30.19753 2.63456,-61.34249 -0.43064,-76.66667 -2.53761,-12.68649 -2.65238,-19.16024 -1.13468,-64 0.49642,-14.66666 0.39105,-30.86666 -0.23416,-36 -0.62522,-5.13333 -0.7122,-49.53333 -0.19329,-98.66666 0.82293,-77.91996 0.67159,-91.3587 -1.18454,-105.18596 -1.76065,-13.11598 -1.86067,-17.86062 -0.57934,-27.48444 0.92232,-6.927376 1.54867,-30.310079 1.54867,-57.814051 0,-32.196759 0.43634,-46.1822188 1.44086,-46.1822188 1.26002,0 1.09131,45.4169008 -0.42845,115.3333298 -0.11158,5.13334 0.41437,15.93334 1.16878,24 0.87345,9.33943 1.08965,45.41936 0.59524,99.33334 -0.42704,46.56666 -0.26786,90.96666 0.35372,98.66666 0.70866,8.77884 0.5304,26.46562 -0.47799,47.42523 -1.26895,26.37535 -1.26207,35.09221 0.0326,41.32879 0.90242,4.34696 2.04839,14.80561 2.54659,23.24144 0.49821,8.43584 0.67237,-18.86212 0.38703,-60.66212 -0.37021,-54.2337 -0.0467,-80.58238 1.12958,-92 1.43299,-13.90935 1.34701,-18.4391 -0.65803,-34.66667 -2.02871,-16.41923 -2.15847,-24.12472 -1.07775,-64 0.67575,-24.93333 1.1535,-76.23333 1.06166,-113.999996 -0.0918,-37.766671 0.22188,-72.266671 0.69714,-76.6666698 0.72024,-6.667974 0.91597,-5.335948 1.17557,7.9999988 0.62883,32.303414 0.65321,42.135502 0.20268,81.733691 -0.25282,22.220206 -0.0898,40.770206 0.3622,41.222226 0.45202,0.45203 0.85961,-10.82814 0.90576,-25.06703 0.0461,-14.23889 0.63201,-30.988887 1.30192,-37.22222 2.81246,-26.168969 2.95083,-30.24862 1.50755,-44.448995 -2.52899,-24.8826948 -2.90114,-31.5510048 -1.76081,-31.5510048 0.60042,0 1.84072,8.5494938 2.75621,18.9988748 0.9155,10.449381 1.91505,19.249381 2.22122,19.555556 0.30617,0.306174 0.64417,-8.39332 0.75111,-19.332208 l 0.19443,-19.8888888 1.15829,18.6666658 c 0.7046,11.355064 0.67192,19.770891 -0.0834,21.485772 -0.74001,1.680061 -0.8152,10.03032 -0.18611,20.666667 1.26807,21.439822 0.84044,131.474751 -0.6147,158.169571 -0.89665,16.44918 -0.71611,20.00276 1.34996,26.57134 2.15803,6.86094 2.28974,10.95477 1.38376,43.01133 -1.201,42.49533 -1.17785,95.98989 0.0578,133.67928 0.60286,18.38747 0.34869,33.94615 -0.76233,46.66667 -1.43641,16.44589 -1.36693,21.91465 0.5028,39.57753 1.43568,13.5626 1.87282,24.83736 1.29237,33.33333 -1.46392,21.42699 -3.22901,19.82154 -2.34205,-2.13021 0.64285,-15.9102 0.3122,-23.66329 -1.52847,-35.83984 -2.09946,-13.88844 -2.16379,-17.35207 -0.60612,-32.62948 1.30965,-12.84481 1.442,-24.31452 0.53266,-46.16016 -1.46214,-35.12572 -1.26378,-85.60296 0.53059,-135.01953 1.28123,-35.28486 1.23169,-36.86218 -1.36092,-43.33334 -2.47261,-6.17161 -2.60244,-8.28165 -1.60281,-26.04893 1.20245,-21.37205 1.34702,-36.09111 0.64824,-66 -0.25701,-11 -0.02,-37.4 0.52654,-58.666666 0.54659,-21.266667 0.69694,-38.366667 0.3341,-38.000001 -2.11256,2.134839 -3.9839,41.923747 -4.54639,96.666667 -0.35415,34.46667 -0.73123,68.96667 -0.83797,76.66667 -0.11594,8.36453 0.73485,19.09876 2.11359,26.66666 2.62459,14.40642 3.02561,40.21584 0.76653,49.33334 -2.35443,9.50226 -1.63623,177.58813 0.83399,195.18537 1.37871,9.82163 1.73048,21.65964 1.27355,42.85884 -0.67293,31.22105 -4.28654,84.59589 -5.84517,86.33604 -1.00363,1.12052 -0.78666,-3.99299 1.38169,-32.56276 2.30388,-30.35541 2.55955,-82.67544 0.49147,-100.57421 l -1.83828,-15.90995 0.85317,16.66667 c 0.46924,9.16666 0.70574,19.36666 0.52556,22.66666 -0.18019,3.3 -0.22793,18 -0.10611,32.66667 0.12183,14.66667 -0.45216,31.46667 -1.27553,37.33333 -0.82942,5.90978 -1.48237,27.5417 -1.46414,48.50652 0.0245,28.21527 -0.4528,39.93407 -1.87661,46.07344 -1.47745,6.37062 -1.63148,11.083 -0.68078,20.82682 0.67579,6.92628 1.48885,29.99322 1.80678,51.25989 0.37114,24.82521 0.19492,34.1324 -0.49227,26 -0.58869,-6.96667 -1.1375,-22.33937 -1.21958,-34.16159 -0.0821,-11.8222 -1.07246,-29.88229 -2.20085,-40.13353 -1.61414,-14.66429 -1.7238,-19.88953 -0.51427,-24.50508 1.75646,-6.70267 4.18067,-75.14928 4.41065,-124.53313 0.0854,-18.33334 0.61574,-34.04304 1.17858,-34.91046 1.08686,-1.67501 -0.31261,-39.57806 -1.42042,-38.47025 -1.32516,1.32516 -2.89181,27.92612 -4.20391,71.38071 -0.74179,24.56666 -1.98402,64.46666 -2.76052,88.66666 -1.71333,53.39712 -1.78418,48.01464 0.83358,63.33334 2.2646,13.25204 2.53173,20.95777 2.11469,61 -0.18152,17.42925 -0.69239,24.33333 -1.80054,24.33333 -1.1564,0 -1.32588,-8.59748 -0.6711,-34.04375 z m 9.15239,-364.02384 c -0.3276,-65.7161 -0.0289,-83.24482 1.66667,-97.79349 2.64777,-22.71941 2.57581,-26.68929 -0.70338,-38.80559 -2.54364,-9.39853 -2.66949,-12.84696 -2.09235,-57.33333 l 0.61408,-47.33333 -1.38581,46 c -1.24505,41.32756 -1.15018,47.6644 0.93394,62.38592 1.97175,13.92773 2.08783,18.32826 0.77377,29.33333 -2.01029,16.83589 -2.69737,189.14111 -0.7411,185.85428 0.86132,-1.44715 1.19203,-30.58471 0.93418,-82.30779 z m -0.55235,356.40092 c -0.33577,-22.91666 -0.0724,-48.26666 0.58535,-56.33333 0.6577,-8.06667 0.90837,-24.26667 0.55704,-36 -0.54942,-18.34857 -0.46028,-19.74768 0.63711,-10 1.67338,14.86407 1.69556,16.19303 1.41838,85 -0.13278,32.95908 -0.75623,59 -1.41254,59 -0.64617,0 -1.44958,-18.75 -1.78534,-41.66667 z m 7.87854,11.66667 c 1.06476,-39.69012 1.01621,-42.01437 -1.68919,-80.87575 -1.90188,-27.31916 -2.03023,-35.88272 -0.75938,-50.66666 0.84114,-9.785 1.59771,-24.69092 1.68128,-33.12426 0.333,-33.60469 1.84329,-33.60469 3.06143,0 1.38292,38.15063 1.16723,51.02643 -1.03857,62 -0.93327,4.64291 -1.24598,11.3571 -0.74518,16 5.77468,53.5375 5.73276,52.75551 3.42057,63.80928 -1.31312,6.27755 -2.25455,17.49902 -2.34909,28 -0.0868,9.63823 -0.66328,19.32406 -1.28116,21.52406 -0.63366,2.25622 -0.76476,-9.36896 -0.30071,-26.66667 z m 5.90524,15 c 0.0911,-8.25 0.59668,-19.2 1.12355,-24.33333 0.7324,-7.13599 1.00732,-3.60456 1.16772,15 0.1334,15.47318 -0.2757,24.33333 -1.12355,24.33333 -0.81969,0 -1.26953,-5.77848 -1.16772,-15 z m 7.42923,-6.66667 c -0.37357,-11.91666 -1.31797,-26.42248 -2.09865,-32.23516 -1.10765,-8.24701 -0.99091,-13.81172 0.53143,-25.33333 2.62156,-19.84096 2.54295,-101.73253 -0.14794,-154.09817 -3.41974,-66.54954 -3.6196,-76.40138 -1.92604,-94.94063 0.8906,-9.74932 2.18359,-20.72604 2.8733,-24.39271 3.55092,-18.87742 3.77114,-25.7836 2.24089,-70.27506 -0.86498,-25.14871 -1.58094,-49.62494 -1.59104,-54.3916 -0.16048,-75.75627 0.96574,-191.16028 1.94682,-199.49226 0.92986,-7.89692 0.753,-16.28172 -0.65374,-30.993786 -2.18231,-22.823096 -1.45163,-88.1806238 0.98583,-88.1806238 0.88447,0 1.04039,11.9351768 0.4595,35.1735428 -0.6815,27.26374 -0.42085,39.537373 1.15908,54.578761 1.49351,14.218576 1.69234,21.656046 0.74391,27.826456 -1.53359,9.9774 -2.0354,196.83224 -0.70854,263.83609 0.88451,44.6662 0.81635,46.61139 -2.21921,63.33334 -2.73653,15.07468 -3.13494,21.4584 -3.15704,50.58514 -0.0139,18.33334 0.71092,45.03334 1.61072,59.33334 0.89979,14.3 2.03304,51.2 2.51832,82 0.75908,48.17764 0.56183,58.88682 -1.41213,76.66666 -2.12221,19.11523 -2.1364,21.86363 -0.18905,36.61128 2.27879,17.25772 2.84724,46.05539 0.9091,46.05539 -0.65797,0 -1.50195,-9.75 -1.87552,-21.66667 z m 11.86639,-6.25577 c -0.51703,-15.35733 -0.56533,-39.80733 -0.10733,-54.33333 0.52414,-16.6238 0.12863,-39.75143 -1.06732,-62.4109 -1.04503,-19.8 -1.61012,-38.34644 -1.25576,-41.21429 0.35436,-2.86787 -0.0766,-18.16787 -0.95764,-34 -1.53178,-27.52509 -1.47575,-29.4864 1.27953,-44.78571 3.8473,-21.36301 5.03109,-60.86069 2.48274,-82.83773 -1.96937,-16.98384 -2.10382,-38.6306 -0.50544,-81.37697 0.55284,-14.78476 0.49418,-32.18476 -0.13033,-38.66667 -0.95879,-9.95132 -1.31625,-4.73072 -2.29705,33.54804 -0.63886,24.93333 -1.21094,48.03333 -1.27129,51.33333 -0.0604,3.3 0.36357,16.5 0.94204,29.33334 0.77924,17.28702 0.49571,31.0871 -1.09413,53.25594 -1.18026,16.45743 -2.18809,35.05743 -2.23963,41.33334 -0.0515,6.27589 -0.60937,12.61072 -1.23962,14.07738 -1.56582,3.64387 -1.53723,-24.18756 0.0582,-56.66666 0.70244,-14.3 1.61278,-82.1 2.02297,-150.66667 0.41019,-68.56667 1.30357,-127.89355 1.98528,-131.83749 0.79245,-4.58458 0.7334,-12.99934 -0.16373,-23.33124 -0.99978,-11.51408 -0.97113,-26.31254 0.0996,-51.47068 0.82658,-19.42067 1.76419,-35.57162 2.08358,-35.891 0.31938,-0.31939 0.67252,9.8693 0.78476,22.64152 l 0.20408,23.22222 1.22986,-24 c 1.7016,-33.205546 1.78103,-49.305961 0.43908,-88.999997 -0.78175,-23.123681 -0.7184,-34.3333328 0.19404,-34.3333328 1.31347,0 3.34898,46.0015248 3.51041,79.3333328 0.0621,12.830681 -2.01817,55.580907 -4.00711,82.345837 -0.46349,6.2372 0.1729,13.01187 2.06662,22 4.35006,20.64656 4.61137,24.49011 2.28292,33.57892 -1.37402,5.36334 -2.12264,14.01964 -2.12024,24.51627 0.002,8.92411 -0.67547,27.02564 -1.5056,40.22564 -1.05704,16.80816 -1.10413,28.19524 -0.15715,38 0.90641,9.38468 0.92021,27.84596 0.0418,56 -1.03134,33.05795 -0.92771,46.25812 0.48676,62 2.90562,32.337 2.34029,71.00528 -1.36388,93.28908 -2.97416,17.89221 -3.03433,19.67371 -1.5345,45.43367 0.85857,14.74618 1.41666,30.6661 1.2402,35.37758 -0.17646,4.71148 0.0828,24.46634 0.57612,43.89967 1.64967,64.98371 2.22955,140 1.08222,140 -0.62431,0 -1.55813,-12.56509 -2.07517,-27.92244 z m 0.39868,-522.74423 c 0.0799,-10.8641 0.97413,-23.42192 2.04121,-28.66666 2.01484,-9.90296 1.98433,-11.09522 -0.63134,-24.66667 -0.91869,-4.76667 -2.12857,-16.76667 -2.68862,-26.66667 -0.81785,-14.45722 -0.87078,-13.14508 -0.26889,6.66667 1.0915,35.92828 1.09822,38.43933 0.21208,79.33333 -0.44494,20.53334 -0.35847,31.93334 0.19215,25.33334 0.55062,-6.6 1.06515,-20.7 1.14341,-31.33334 z m 10.60201,538.00448 c 0.25842,-7.08501 -0.53847,-20.44884 -1.80886,-30.33437 -2.00855,-15.62963 -2.16263,-26.0614 -1.33423,-90.33677 0.67768,-52.58128 0.50232,-76.53634 -0.63444,-86.66667 -1.1666,-10.39636 -1.20107,-18.46164 -0.13391,-31.33333 2.07652,-25.04624 4.19634,-121.01164 2.91579,-132 -1.0765,-9.2375 -1.09142,-9.26488 -1.45249,-2.66667 -0.34663,6.33424 -0.40822,6.43397 -1.2351,2 -0.47865,-2.56667 -0.67002,-44.56667 -0.42527,-93.33333 0.36795,-73.3123 0.79941,-90.35732 2.49152,-98.4297 2.39894,-11.44434 1.04813,-28.96497 -3.48637,-45.22009 -3.21619,-11.52924 -3.38584,-18.04811 -0.67002,-25.74556 1.67873,-4.75801 2.0509,-15.70519 2.19285,-64.500966 0.094,-32.323697 0.59904,-56.370354 1.12224,-53.437021 0.62028,3.477567 1.01712,-1.045866 1.14049,-13 0.13056,-12.6499908 0.65723,-18.3333328 1.69894,-18.3333328 1.1101,0 1.27532,10.4999078 0.62416,39.6666668 -1.06947,47.903297 -1.06847,45.441557 -0.0315,77.716623 0.71293,22.19055 0.52042,26.80744 -1.29938,31.16283 -2.81288,6.73217 -2.69503,12.45865 0.58257,28.30711 3.03146,14.65828 3.4912,32.10421 1.33406,50.62436 -0.7595,6.52065 -1.3158,16.35574 -1.23622,21.85574 0.0796,5.5 -0.30495,24.17227 -0.85452,41.49394 -0.67476,21.26784 -0.49263,36.88188 0.56094,48.08753 1.16029,12.34077 1.18438,20.63149 0.094,32.34853 -1.20955,12.99764 -1.07024,19.90619 0.79605,39.47482 1.87283,19.63732 2.00264,26.20484 0.75418,38.15753 -0.8294,7.94071 -1.52068,32.13765 -1.53616,53.77099 -0.0155,21.63333 -0.60149,41.73333 -1.30223,44.66666 -0.8183,3.42542 -0.76522,21.07363 0.14838,49.33334 1.01511,31.3998 1.00965,50.87282 -0.019,68 -1.46629,24.4125 -0.76193,50.30016 2.68454,98.66666 1.4983,21.02663 1.06961,32.6652 -1.20326,32.6677 -0.51677,5.7e-4 -0.73171,-5.69788 -0.47766,-12.66322 z m -2.85224,-390.32226 c -0.31893,-1.65855 -0.59197,-0.61555 -0.60677,2.31778 -0.0148,2.93334 0.24614,4.29034 0.57986,3.01555 0.33372,-1.27479 0.34583,-3.67479 0.0269,-5.33333 z m 1.36338,-35.31915 c -0.28863,-2.76635 -0.52963,-0.82973 -0.53554,4.3036 -0.006,5.13333 0.23024,7.39672 0.52479,5.02973 0.29455,-2.36697 0.29939,-6.56697 0.0108,-9.33333 z M 67.967619,170.1448 c -0.7827,-2.81876 -1.49603,-6.92503 -1.58519,-9.12503 -0.11221,-2.76898 -0.36605,-3.19734 -0.82479,-1.39189 -0.7169,2.82152 2.12656,17.34847 3.18799,16.28704 0.3548,-0.3548 0.005,-2.95135 -0.77801,-5.77012 z m 2.2917,-24.63791 c -0.41984,-2.66892 -0.60763,-2.48112 -1.22144,1.22144 -0.43926,2.64963 -0.24359,3.89348 0.49611,3.15378 0.67179,-0.67179 0.99819,-2.64064 0.72533,-4.37522 z m 5.89254,627.17955 c -0.0966,-13.75 -0.79623,-30.4 -1.55467,-37 -1.46398,-12.73965 -1.61159,-67.89363 -0.22659,-84.66667 0.45415,-5.5 0.32051,-13.9 -0.29697,-18.66666 -1.67427,-12.92454 -1.58745,-60.45644 0.13273,-72.66667 1.78588,-12.67656 2.32052,-118.83568 0.93337,-185.33333 -1.48091,-70.99298 -1.40425,-90.67228 0.50871,-130.59128 1.42403,-29.71608 1.46367,-41.93168 0.19587,-60.34686 -0.87427,-12.69889 -1.1732,-24.13281 -0.6643,-25.40872 0.5089,-1.27589 0.87655,-36.96981 0.81699,-79.31981 -0.0703,-50.017293 0.35444,-76.9999998 1.21219,-76.9999998 1.42387,0 1.61888,13.9213068 1.39144,99.3333298 -0.0762,28.6 -0.46923,54.40214 -0.8735,57.33807 -0.40427,2.93595 -0.0792,14.63595 0.72231,26 1.08174,15.33664 1.04461,30.62767 -0.14407,59.3286 -1.81149,43.73877 -1.91017,65.53203 -0.5977,132 1.50922,76.43161 0.89656,168.10439 -1.26087,188.66667 -2.28201,21.74969 -2.32065,43.0524 -0.11813,65.14466 0.96337,9.6631 1.23182,20.14035 0.6491,25.33334 -1.4501,12.92265 -1.32332,61.57288 0.1968,75.522 1.59058,14.59562 1.78954,67.33333 0.25403,67.33333 -0.60558,0 -1.18011,-11.25 -1.27674,-25 z m 4.83092,-64.66667 c -0.24921,-49.31666 -0.24939,-228.41666 -3.9e-4,-398 0.38803,-264.271123 0.72147,-308.3333298 2.33333,-308.3333298 1.61439,0 1.88061,56.3412588 1.88061,397.9999998 0,341.61929 -0.26635,398 -1.88022,398 -1.59492,0 -1.94896,-13.60503 -2.33333,-89.66667 z m -38.26079,34.33334 c -0.1861,-3.66667 -0.5302,-58.26667 -0.76466,-121.33334 l -0.42629,-114.66666 1.49931,68 c 1.21217,54.97701 0.9589,192.96737 -0.30836,168 z M 9.9437385,573.9198 c 0.0601,-84.05683 0.4991305,-114.80607 1.7184505,-120.3608 1.13114,-5.15301 1.24985,-9.27728 0.38378,-13.33333 -2.5856605,-12.10946 -2.9370905,-23.78524 -1.30044,-43.2059 2.16732,-25.7177 2.16565,-41.59946 -0.006,-53.63188 -0.9559705,-5.29753 -1.5049005,-10.99753 -1.2198405,-12.66666 0.3836,-2.24618 0.7646905,-1.64888 1.4665305,2.29854 0.52154,2.93334 1.9207,9.94154 3.10924,15.57379 2.21134,10.47909 2.04275,18.87756 -0.82487,41.09288 -2.07219,16.05315 -1.71307,38.49116 0.74835,46.758 1.86403,6.26041 1.95017,9.28215 0.63553,22.29396 -0.90547,8.962 -1.84978,57.51347 -2.33397,120 -0.44727,57.72143 -1.18326,105.65305 -1.63553,106.51473 -0.45227,0.86168 -0.7859705,-49.23832 -0.7415705,-111.33333 z M 40.172329,501.68644 c 0,-2.56667 0.2744,-3.61667 0.60977,-2.33333 0.33537,1.28333 0.33537,3.38333 0,4.66666 -0.33537,1.28334 -0.60977,0.23334 -0.60977,-2.33333 z m 0.32352,-64.66667 c 0.51457,-22.73333 1.7609,-47.03333 2.7696,-54 l 1.83401,-12.66666 -0.70505,11.33333 c -0.38778,6.23333 -1.17519,30.09253 -1.74979,53.02045 -0.57461,22.92791 -1.50366,42.12791 -2.06456,42.66667 -0.56089,0.53875 -0.59879,-17.62045 -0.0842,-40.35379 z M 9.5325685,367.68644 c 0.0148,-2.93333 0.28785,-3.97633 0.6067705,-2.31779 0.31893,1.65855 0.30682,4.05855 -0.0269,5.33334 -0.3337305,1.27478 -0.5946705,-0.0822 -0.5798705,-3.01555 z M 43.171769,356.35311 c -1.33661,-12.93606 -1.56972,-72.81062 -0.35206,-90.42536 0.37103,-5.36728 -0.16459,-19.16728 -1.19025,-30.66667 -1.55054,-17.38411 -1.58274,-25.17771 -0.19107,-46.24131 2.06936,-31.3206 2.05143,-40.02588 -0.17706,-86 -0.97754,-20.166663 -1.79621,-42.966663 -1.81928,-50.666663 -0.0636,-21.220806 1.96322,-50.6666668 3.48744,-50.6666668 0.87943,0 0.97289,8.288874 0.27438,24.3333328 -1.39746,32.098752 -1.39063,33.355299 0.45473,83.666667 1.20706,32.90908 1.22332,50.91576 0.0676,74.85328 -1.14459,23.70691 -1.14153,35.82087 0.0124,48.87104 1.15905,13.10883 1.15531,27.24393 -0.0153,57.81339 -1.21978,31.85353 -1.19613,43.58277 0.11113,55.12896 0.91332,8.06666 1.43233,16.46666 1.15337,18.66666 -0.27896,2.2 -1.09615,-1.7 -1.81598,-8.66666 z M 10.047549,212.01824 C 10.436139,3.5676612 10.454109,1.6864402 12.056259,1.6864402 c 1.13302,0 1.41212,18.3047408 1.08259,70.9999998 -0.24421,39.05 -0.34108,106.37265 -0.21527,149.60589 0.14575,50.08487 -0.26569,80.44211 -1.13398,83.66667 -0.7495,2.78343 -1.4896,5.06008 -1.64466,5.05924 -0.1550705,-8.4e-4 -0.1989005,-44.55084 -0.0974,-99 z m 48.15568,-128.3318 c -1.43146,-19.218593 -1.19279,-36.887476 0.443,-32.797196 0.70448,1.761541 1.11645,12.861541 0.91549,24.666667 l -0.36539,21.463863 z"
     id="path3737"
     inkscape:connector-curvature="0" />
</svg>
